<?xml version="1.0" encoding="utf-8"?>
<!-- Generator: Adobe Illustrator 23.0.2, SVG Export Plug-In . SVG Version: 6.00 Build 0)  -->
<svg version="1.1" id="Camada_1" xmlns="http://www.w3.org/2000/svg" xmlns:xlink="http://www.w3.org/1999/xlink" x="0px" y="0px"
	 width="214.06px" height="56px" viewBox="0 0 214.06 56" style="enable-background:new 0 0 214.06 56;" xml:space="preserve">
<style type="text/css">
	.st0{fill:#224099;}
	.st1{fill:#0094D9;}
	.st2{fill:#FFFFFF;}
</style>
<g>
	<rect x="38.45" class="st0" width="175.61" height="41.79"/>
	<rect class="st1" width="38.45" height="41.79"/>
	<path class="st2" d="M38.45,41.79c-0.37,0-0.37-0.33-0.37-0.33c-0.59-6.74-0.79-13.52-0.64-20.28c0.13-5.77,0.46-11.53,0.47-17.3
		c0-0.05-0.04-0.1-0.1-0.1h-2.97c-0.05,0-0.1-0.04-0.1-0.1V2.73c0-0.05,0.04-0.1,0.1-0.1h2.97c0.05,0,0.1-0.04,0.1-0.1V0.1
		c0-0.05,0.04-0.1,0.1-0.1h0.87c0.05,0,0.1,0.04,0.1,0.1v2.44c0,0.06,0.04,0.1,0.1,0.1h2.97c0.05,0,0.1,0.04,0.1,0.1v0.94
		c0,0.05-0.04,0.1-0.1,0.1h-2.97c-0.06,0-0.1,0.05-0.1,0.1c0.01,5.77,0.34,11.53,0.47,17.3c0.15,6.77-0.04,13.54-0.64,20.28
		C38.82,41.46,38.82,41.79,38.45,41.79"/>
	<path class="st2" d="M43.4,7.1c-0.68,3-1.36,6.1-1.37,9.18c-0.02,3.87,1.02,7.21,2.87,10.59c0,0.01,0.01,0.02,0.01,0.02l6.2,13.23
		c0.1,0.21,0.02,0.46-0.19,0.57c-0.2,0.11-0.46,0.04-0.58-0.15l-7.64-12.21c0,0,0,0,0,0c-1.22-1.75-2.06-3.65-2.48-5.74
		c-1.06-5.19,0.6-10.86,2.35-15.73c0.08-0.22,0.31-0.33,0.53-0.27C43.32,6.65,43.45,6.87,43.4,7.1"/>
	<path class="st2" d="M27.37,8.96c-0.09-0.2-0.02-0.44,0.17-0.56c0.19-0.11,0.43-0.07,0.57,0.11c4.95,6.52,5.9,12.84-1.32,18.06
		c-1.47,1.07-2.98,2.08-4.51,3.07c-1.66,1.08-3.34,2.13-5.03,3.17c-1.85,1.13-3.71,2.25-5.57,3.36c-0.2,0.12-0.46,0.06-0.59-0.14
		c-0.13-0.19-0.08-0.45,0.11-0.59l14.19-10.34c1.87-1.36,3.65-3.06,4.3-5.35c0.44-1.55,0.31-3.14-0.04-4.69
		C29.17,12.99,28.27,10.89,27.37,8.96"/>
	<path class="st2" d="M30.03,7.82c-0.07-0.22,0.04-0.45,0.25-0.53c0.21-0.08,0.45,0,0.55,0.21c1.17,2.35,2.28,4.85,2.92,7.4
		c0.53,2.1,0.74,4.27,0.26,6.4c-0.6,2.67-2.18,4.8-4.22,6.58c-1.9,1.66-3.83,3.31-5.78,4.91c-1.61,1.32-3.23,2.61-4.88,3.88
		c-0.88,0.68-1.76,1.35-2.64,2.01c-0.18,0.14-0.44,0.11-0.59-0.06c-0.15-0.17-0.13-0.43,0.03-0.59l12.48-12.21
		c1.5-1.47,2.91-3.13,3.53-5.18c0.52-1.7,0.43-3.47,0.14-5.2c-0.19-1.15-0.47-2.29-0.78-3.41C30.92,10.61,30.48,9.21,30.03,7.82"/>
	<path class="st2" d="M33.58,7.1c-0.05-0.22,0.08-0.45,0.31-0.51c0.22-0.06,0.45,0.05,0.53,0.27c1.75,4.87,3.41,10.54,2.34,15.73
		c-0.43,2.09-1.27,3.99-2.48,5.74c0,0,0,0,0,0l-7.64,12.21c-0.12,0.19-0.37,0.26-0.58,0.15c-0.2-0.11-0.28-0.36-0.19-0.57l6.2-13.23
		c0-0.01,0.01-0.02,0.01-0.02c1.84-3.38,2.89-6.73,2.87-10.59C34.94,13.19,34.26,10.1,33.58,7.1"/>
	<path class="st2" d="M49.61,8.96c-0.9,1.93-1.79,4.03-2.27,6.11c-0.36,1.55-0.48,3.14-0.04,4.69c0.65,2.29,2.43,3.99,4.3,5.35
		l14.19,10.34c0.19,0.14,0.23,0.4,0.11,0.59c-0.13,0.19-0.39,0.25-0.58,0.14c-1.87-1.11-3.73-2.22-5.57-3.36
		c-1.69-1.04-3.37-2.09-5.03-3.17c-1.52-0.99-3.03-2.01-4.5-3.07c-7.22-5.23-6.27-11.54-1.33-18.06C49,8.34,49.25,8.29,49.44,8.4
		C49.63,8.52,49.7,8.76,49.61,8.96"/>
	<path class="st2" d="M46.95,7.82c-0.45,1.39-0.89,2.79-1.28,4.21c-0.31,1.12-0.59,2.26-0.78,3.41c-0.29,1.73-0.37,3.51,0.14,5.2
		c0.62,2.04,2.03,3.71,3.53,5.18l12.48,12.21c0.16,0.16,0.18,0.41,0.03,0.59c-0.15,0.17-0.4,0.2-0.59,0.06
		c-0.88-0.67-1.76-1.34-2.64-2.01c-1.65-1.27-3.27-2.56-4.88-3.88c-1.95-1.61-3.88-3.25-5.78-4.91c-2.04-1.78-3.62-3.91-4.22-6.58
		c-0.48-2.13-0.27-4.3,0.26-6.4c0.64-2.55,1.75-5.05,2.92-7.4c0.1-0.2,0.34-0.29,0.55-0.21C46.91,7.37,47.02,7.6,46.95,7.82"/>
	<g>
		<path class="st0" d="M6.58,55.65c-0.33,0.16-1.07,0.34-2.03,0.34c-2.73,0-4.14-1.7-4.14-3.95c0-2.7,1.92-4.2,4.32-4.2
			c0.93,0,1.63,0.19,1.95,0.35l-0.36,1.42c-0.36-0.15-0.87-0.29-1.5-0.29c-1.42,0-2.52,0.86-2.52,2.62c0,1.58,0.94,2.58,2.53,2.58
			c0.54,0,1.14-0.12,1.49-0.26L6.58,55.65z"/>
		<path class="st0" d="M8.75,53.57c0.06,0.74,0.79,1.09,1.62,1.09c0.61,0,1.1-0.08,1.58-0.23l0.23,1.21
			c-0.59,0.23-1.3,0.35-2.08,0.35c-1.95,0-3.06-1.13-3.06-2.92c0-1.45,0.9-3.06,2.9-3.06c1.85,0,2.56,1.44,2.56,2.86
			c0,0.31-0.03,0.57-0.06,0.7H8.75z M10.85,52.35c0-0.43-0.19-1.16-1.01-1.16c-0.75,0-1.06,0.68-1.1,1.16H10.85z"/>
		<path class="st0" d="M13.48,51.97c0-0.72-0.02-1.33-0.05-1.83h1.55l0.08,0.79h0.03c0.23-0.36,0.82-0.91,1.77-0.91
			c1.17,0,2.05,0.77,2.05,2.46v3.4h-1.78v-3.18c0-0.74-0.26-1.24-0.9-1.24c-0.49,0-0.79,0.34-0.9,0.67
			c-0.05,0.11-0.07,0.28-0.07,0.45v3.31h-1.78V51.97z"/>
		<path class="st0" d="M22.18,48.49v1.64h1.28v1.31h-1.28v2.08c0,0.69,0.16,1.01,0.7,1.01c0.22,0,0.4-0.02,0.53-0.05l0.01,1.35
			c-0.23,0.09-0.66,0.15-1.16,0.15c-0.57,0-1.06-0.2-1.34-0.49c-0.33-0.34-0.49-0.89-0.49-1.7v-2.35h-0.76v-1.31h0.76v-1.24
			L22.18,48.49z"/>
		<path class="st0" d="M24.4,52.02c0-0.84-0.02-1.4-0.05-1.89h1.54l0.06,1.06h0.05c0.29-0.83,1-1.18,1.55-1.18
			c0.16,0,0.25,0,0.38,0.02v1.68c-0.13-0.02-0.28-0.05-0.48-0.05c-0.66,0-1.1,0.35-1.22,0.9c-0.02,0.12-0.03,0.26-0.03,0.4v2.91
			H24.4V52.02z"/>
		<path class="st0" d="M34.33,52.94c0,2.1-1.49,3.06-3.03,3.06c-1.68,0-2.97-1.1-2.97-2.96c0-1.85,1.22-3.04,3.06-3.04
			C33.16,50.01,34.33,51.21,34.33,52.94z M30.18,53c0,0.98,0.41,1.72,1.17,1.72c0.69,0,1.14-0.69,1.14-1.72
			c0-0.86-0.33-1.72-1.14-1.72C30.49,51.27,30.18,52.15,30.18,53z"/>
		<path class="st0" d="M39.45,47.97v4.55c0,1.36,0.52,2.05,1.43,2.05c0.94,0,1.45-0.66,1.45-2.05v-4.55h1.78v4.43
			c0,2.44-1.23,3.6-3.29,3.6c-1.99,0-3.17-1.1-3.17-3.62v-4.41H39.45z"/>
		<path class="st0" d="M45.52,51.97c0-0.72-0.02-1.33-0.05-1.83h1.55l0.08,0.79h0.03c0.23-0.36,0.82-0.91,1.77-0.91
			c1.17,0,2.05,0.77,2.05,2.46v3.4h-1.78v-3.18c0-0.74-0.26-1.24-0.9-1.24c-0.49,0-0.79,0.34-0.9,0.67
			c-0.05,0.11-0.07,0.28-0.07,0.45v3.31h-1.78V51.97z"/>
		<path class="st0" d="M54.14,48.54c0,0.49-0.38,0.89-0.96,0.89c-0.56,0-0.94-0.4-0.93-0.89c-0.01-0.52,0.36-0.9,0.94-0.9
			S54.13,48.02,54.14,48.54z M52.3,55.87v-5.74h1.78v5.74H52.3z"/>
		<path class="st0" d="M56.74,50.14l0.77,2.66c0.14,0.48,0.25,0.94,0.33,1.4h0.04c0.09-0.47,0.19-0.9,0.32-1.4l0.74-2.66h1.88
			l-2.13,5.74h-1.78l-2.09-5.74H56.74z"/>
		<path class="st0" d="M62.73,53.57c0.06,0.74,0.79,1.09,1.62,1.09c0.61,0,1.1-0.08,1.58-0.23l0.23,1.21
			c-0.59,0.23-1.3,0.35-2.08,0.35c-1.95,0-3.06-1.13-3.06-2.92c0-1.45,0.9-3.06,2.9-3.06c1.85,0,2.56,1.44,2.56,2.86
			c0,0.31-0.03,0.57-0.06,0.7H62.73z M64.83,52.35c0-0.43-0.19-1.16-1.01-1.16c-0.75,0-1.06,0.68-1.1,1.16H64.83z"/>
		<path class="st0" d="M67.46,52.02c0-0.84-0.02-1.4-0.05-1.89h1.54l0.06,1.06h0.05c0.29-0.83,1-1.18,1.55-1.18
			c0.16,0,0.25,0,0.38,0.02v1.68c-0.13-0.02-0.28-0.05-0.48-0.05c-0.66,0-1.1,0.35-1.22,0.9c-0.02,0.12-0.04,0.26-0.04,0.4v2.91
			h-1.78V52.02z"/>
		<path class="st0" d="M71.81,54.31c0.33,0.2,1.01,0.43,1.54,0.43c0.54,0,0.76-0.19,0.76-0.48s-0.18-0.43-0.84-0.66
			c-1.18-0.4-1.64-1.04-1.63-1.72c0-1.07,0.91-1.88,2.33-1.88c0.67,0,1.27,0.15,1.62,0.33l-0.32,1.23
			c-0.26-0.14-0.75-0.33-1.24-0.33c-0.43,0-0.68,0.18-0.68,0.47c0,0.27,0.22,0.41,0.93,0.66c1.09,0.38,1.55,0.93,1.56,1.77
			c0,1.07-0.84,1.85-2.49,1.85c-0.75,0-1.42-0.16-1.85-0.4L71.81,54.31z"/>
		<path class="st0" d="M78.66,48.54c0,0.49-0.38,0.89-0.96,0.89c-0.56,0-0.94-0.4-0.93-0.89c-0.01-0.52,0.36-0.9,0.94-0.9
			C78.29,47.64,78.65,48.02,78.66,48.54z M76.82,55.87v-5.74h1.78v5.74H76.82z"/>
		<path class="st0" d="M81.93,48.49v1.64h1.28v1.31h-1.28v2.08c0,0.69,0.16,1.01,0.7,1.01c0.22,0,0.4-0.02,0.53-0.05l0.01,1.35
			c-0.23,0.09-0.66,0.15-1.16,0.15c-0.57,0-1.06-0.2-1.34-0.49c-0.33-0.34-0.49-0.89-0.49-1.7v-2.35h-0.76v-1.31h0.76v-1.24
			L81.93,48.49z"/>
		<path class="st0" d="M87.41,55.87L87.3,55.3h-0.03c-0.38,0.46-0.96,0.7-1.64,0.7c-1.16,0-1.85-0.84-1.85-1.76
			c0-1.49,1.34-2.2,3.37-2.19v-0.08c0-0.31-0.16-0.74-1.04-0.74c-0.59,0-1.21,0.2-1.58,0.43l-0.33-1.15c0.4-0.22,1.18-0.5,2.23-0.5
			c1.91,0,2.52,1.13,2.52,2.47v1.99c0,0.55,0.02,1.08,0.08,1.4H87.41z M87.2,53.16c-0.94-0.01-1.67,0.21-1.67,0.9
			c0,0.46,0.31,0.68,0.7,0.68c0.45,0,0.81-0.29,0.93-0.66c0.02-0.09,0.03-0.2,0.03-0.31V53.16z M88.38,47.64l-1.43,1.78h-1.23
			l1.01-1.78H88.38z"/>
		<path class="st0" d="M90.25,52.02c0-0.84-0.02-1.4-0.05-1.89h1.54l0.06,1.06h0.05c0.29-0.83,1-1.18,1.55-1.18
			c0.16,0,0.25,0,0.38,0.02v1.68c-0.13-0.02-0.28-0.05-0.48-0.05c-0.66,0-1.1,0.35-1.22,0.9c-0.02,0.12-0.04,0.26-0.04,0.4v2.91
			h-1.78V52.02z"/>
		<path class="st0" d="M96.45,48.54c0,0.49-0.38,0.89-0.96,0.89c-0.56,0-0.94-0.4-0.93-0.89c-0.01-0.52,0.36-0.9,0.94-0.9
			C96.08,47.64,96.44,48.02,96.45,48.54z M94.61,55.87v-5.74h1.78v5.74H94.61z"/>
		<path class="st0" d="M103.4,52.94c0,2.1-1.49,3.06-3.03,3.06c-1.68,0-2.97-1.1-2.97-2.96c0-1.85,1.22-3.04,3.06-3.04
			C102.22,50.01,103.4,51.21,103.4,52.94z M99.24,53c0,0.98,0.41,1.72,1.17,1.72c0.69,0,1.14-0.69,1.14-1.72
			c0-0.86-0.33-1.72-1.14-1.72C99.56,51.27,99.24,52.15,99.24,53z"/>
		<path class="st0" d="M112.54,55.65c-0.33,0.16-1.07,0.34-2.03,0.34c-2.73,0-4.14-1.7-4.14-3.95c0-2.7,1.92-4.2,4.32-4.2
			c0.93,0,1.63,0.19,1.95,0.35l-0.36,1.42c-0.36-0.15-0.87-0.29-1.5-0.29c-1.42,0-2.52,0.86-2.52,2.62c0,1.58,0.94,2.58,2.53,2.58
			c0.54,0,1.14-0.12,1.49-0.26L112.54,55.65z"/>
		<path class="st0" d="M116.71,55.87l-0.11-0.57h-0.03c-0.38,0.46-0.96,0.7-1.64,0.7c-1.16,0-1.85-0.84-1.85-1.76
			c0-1.49,1.34-2.2,3.37-2.19v-0.08c0-0.31-0.16-0.74-1.04-0.74c-0.59,0-1.21,0.2-1.58,0.43l-0.33-1.15c0.4-0.22,1.18-0.5,2.23-0.5
			c1.91,0,2.52,1.13,2.52,2.47v1.99c0,0.55,0.02,1.08,0.08,1.4H116.71z M116.5,53.16c-0.94-0.01-1.67,0.21-1.67,0.9
			c0,0.46,0.31,0.68,0.7,0.68c0.45,0,0.81-0.29,0.93-0.66c0.02-0.09,0.03-0.2,0.03-0.31V53.16z"/>
		<path class="st0" d="M121.44,48.49v1.64h1.28v1.31h-1.28v2.08c0,0.69,0.16,1.01,0.7,1.01c0.22,0,0.4-0.02,0.53-0.05l0.01,1.35
			c-0.23,0.09-0.66,0.15-1.16,0.15c-0.57,0-1.06-0.2-1.34-0.49c-0.33-0.34-0.49-0.89-0.49-1.7v-2.35h-0.76v-1.31h0.76v-1.24
			L121.44,48.49z"/>
		<path class="st0" d="M129.27,52.94c0,2.1-1.49,3.06-3.03,3.06c-1.68,0-2.97-1.1-2.97-2.96c0-1.85,1.22-3.04,3.06-3.04
			C128.09,50.01,129.27,51.21,129.27,52.94z M125.11,53c0,0.98,0.41,1.72,1.17,1.72c0.69,0,1.14-0.69,1.14-1.72
			c0-0.86-0.33-1.72-1.14-1.72C125.43,51.27,125.11,52.15,125.11,53z M128.14,47.64l-1.43,1.78h-1.23l1.01-1.78H128.14z"/>
		<path class="st0" d="M130.28,47.54h1.78v8.33h-1.78V47.54z"/>
		<path class="st0" d="M135.25,48.54c0,0.49-0.38,0.89-0.96,0.89c-0.56,0-0.94-0.4-0.93-0.89c-0.01-0.52,0.36-0.9,0.94-0.9
			C134.87,47.64,135.24,48.02,135.25,48.54z M133.41,55.87v-5.74h1.78v5.74H133.41z"/>
		<path class="st0" d="M140.83,55.73c-0.32,0.14-0.91,0.26-1.59,0.26c-1.85,0-3.04-1.13-3.04-2.93c0-1.68,1.15-3.05,3.28-3.05
			c0.47,0,0.99,0.08,1.36,0.22l-0.28,1.33c-0.21-0.09-0.53-0.18-1-0.18c-0.94,0-1.55,0.67-1.54,1.61c0,1.06,0.7,1.61,1.57,1.61
			c0.42,0,0.75-0.07,1.02-0.18L140.83,55.73z"/>
		<path class="st0" d="M145.03,55.87l-0.11-0.57h-0.03c-0.38,0.46-0.96,0.7-1.64,0.7c-1.16,0-1.85-0.84-1.85-1.76
			c0-1.49,1.34-2.2,3.37-2.19v-0.08c0-0.31-0.16-0.74-1.04-0.74c-0.59,0-1.21,0.2-1.58,0.43l-0.33-1.15c0.4-0.22,1.18-0.5,2.23-0.5
			c1.91,0,2.52,1.13,2.52,2.47v1.99c0,0.55,0.02,1.08,0.08,1.4H145.03z M144.82,53.16c-0.94-0.01-1.67,0.21-1.67,0.9
			c0,0.46,0.31,0.68,0.7,0.68c0.45,0,0.81-0.29,0.93-0.66c0.02-0.09,0.03-0.2,0.03-0.31V53.16z"/>
		<path class="st0" d="M155.7,47.54v6.61c0,0.65,0.02,1.33,0.05,1.71h-1.58l-0.08-0.84h-0.02C153.7,55.67,153,56,152.27,56
			c-1.36,0-2.45-1.16-2.45-2.94c-0.01-1.94,1.2-3.05,2.57-3.05c0.7,0,1.26,0.25,1.51,0.65h0.02v-3.11H155.7z M153.92,52.56
			c0-0.09-0.01-0.22-0.02-0.32c-0.11-0.48-0.49-0.88-1.04-0.88c-0.81,0-1.23,0.73-1.23,1.63c0,0.97,0.48,1.58,1.22,1.58
			c0.52,0,0.93-0.35,1.03-0.86c0.03-0.13,0.05-0.26,0.05-0.41V52.56z"/>
		<path class="st0" d="M162.7,52.94c0,2.1-1.49,3.06-3.03,3.06c-1.68,0-2.97-1.1-2.97-2.96c0-1.85,1.22-3.04,3.06-3.04
			C161.53,50.01,162.7,51.21,162.7,52.94z M158.55,53c0,0.98,0.41,1.72,1.17,1.72c0.69,0,1.14-0.69,1.14-1.72
			c0-0.86-0.33-1.72-1.14-1.72C158.87,51.27,158.55,52.15,158.55,53z"/>
		<path class="st0" d="M167.11,49.47h-2.12v-1.5h6.07v1.5h-2.16v6.4h-1.79V49.47z"/>
		<path class="st0" d="M176.58,52.94c0,2.1-1.49,3.06-3.03,3.06c-1.68,0-2.97-1.1-2.97-2.96c0-1.85,1.22-3.04,3.06-3.04
			C175.41,50.01,176.58,51.21,176.58,52.94z M172.43,53c0,0.98,0.41,1.72,1.17,1.72c0.69,0,1.14-0.69,1.14-1.72
			c0-0.86-0.33-1.72-1.14-1.72C172.74,51.27,172.43,52.15,172.43,53z"/>
		<path class="st0" d="M181.93,55.73c-0.32,0.14-0.91,0.26-1.59,0.26c-1.85,0-3.04-1.13-3.04-2.93c0-1.68,1.15-3.05,3.28-3.05
			c0.47,0,0.99,0.08,1.36,0.22l-0.28,1.33c-0.21-0.09-0.53-0.18-1-0.18c-0.94,0-1.55,0.67-1.54,1.61c0,1.06,0.7,1.61,1.57,1.61
			c0.42,0,0.75-0.07,1.02-0.18L181.93,55.73z"/>
		<path class="st0" d="M186.12,55.87l-0.11-0.57h-0.03c-0.38,0.46-0.96,0.7-1.64,0.7c-1.16,0-1.85-0.84-1.85-1.76
			c0-1.49,1.34-2.2,3.37-2.19v-0.08c0-0.31-0.16-0.74-1.04-0.74c-0.59,0-1.21,0.2-1.58,0.43l-0.33-1.15c0.4-0.22,1.18-0.5,2.23-0.5
			c1.91,0,2.52,1.13,2.52,2.47v1.99c0,0.55,0.02,1.08,0.08,1.4H186.12z M185.91,53.16c-0.94-0.01-1.67,0.21-1.67,0.9
			c0,0.46,0.31,0.68,0.7,0.68c0.45,0,0.81-0.29,0.93-0.66c0.02-0.09,0.03-0.2,0.03-0.31V53.16z"/>
		<path class="st0" d="M188.96,51.97c0-0.72-0.02-1.33-0.05-1.83h1.55l0.08,0.79h0.03c0.23-0.36,0.82-0.91,1.77-0.91
			c1.17,0,2.05,0.77,2.05,2.46v3.4h-1.78v-3.18c0-0.74-0.26-1.24-0.9-1.24c-0.49,0-0.79,0.34-0.9,0.67
			c-0.05,0.11-0.07,0.28-0.07,0.45v3.31h-1.78V51.97z"/>
		<path class="st0" d="M197.67,48.49v1.64h1.28v1.31h-1.28v2.08c0,0.69,0.16,1.01,0.7,1.01c0.22,0,0.4-0.02,0.53-0.05l0.01,1.35
			c-0.23,0.09-0.66,0.15-1.16,0.15c-0.57,0-1.06-0.2-1.34-0.49c-0.33-0.34-0.49-0.89-0.49-1.7v-2.35h-0.76v-1.31h0.76v-1.24
			L197.67,48.49z"/>
		<path class="st0" d="M201.72,48.54c0,0.49-0.38,0.89-0.96,0.89c-0.56,0-0.94-0.4-0.93-0.89c-0.01-0.52,0.36-0.9,0.94-0.9
			C201.35,47.64,201.71,48.02,201.72,48.54z M199.88,55.87v-5.74h1.78v5.74H199.88z"/>
		<path class="st0" d="M203,51.97c0-0.72-0.02-1.33-0.05-1.83h1.55l0.08,0.79h0.03c0.23-0.36,0.82-0.91,1.77-0.91
			c1.17,0,2.05,0.77,2.05,2.46v3.4h-1.78v-3.18c0-0.74-0.26-1.24-0.9-1.24c-0.49,0-0.79,0.34-0.9,0.67
			c-0.05,0.11-0.07,0.28-0.07,0.45v3.31H203V51.97z"/>
		<path class="st0" d="M209.77,54.31c0.33,0.2,1.01,0.43,1.54,0.43c0.54,0,0.76-0.19,0.76-0.48s-0.18-0.43-0.84-0.66
			c-1.18-0.4-1.64-1.04-1.63-1.72c0-1.07,0.91-1.88,2.33-1.88c0.67,0,1.27,0.15,1.62,0.33l-0.32,1.23
			c-0.26-0.14-0.75-0.33-1.24-0.33c-0.43,0-0.68,0.18-0.68,0.47c0,0.27,0.22,0.41,0.93,0.66c1.09,0.38,1.55,0.93,1.56,1.77
			c0,1.07-0.84,1.85-2.49,1.85c-0.75,0-1.42-0.16-1.85-0.4L209.77,54.31z"/>
	</g>
	<g>
		<path class="st2" d="M75.63,11.9v10.2c0,3.05,1.16,4.6,3.21,4.6c2.1,0,3.26-1.47,3.26-4.6V11.9h4v9.94c0,5.47-2.76,8.07-7.39,8.07
			c-4.47,0-7.1-2.47-7.1-8.12V11.9H75.63z"/>
		<path class="st2" d="M89.3,20.86c0-1.6-0.05-2.97-0.1-4.1h3.47l0.18,1.76h0.08c0.53-0.81,1.84-2.05,3.97-2.05
			c2.63,0,4.6,1.74,4.6,5.52v7.63h-4v-7.13c0-1.66-0.58-2.79-2.02-2.79c-1.1,0-1.76,0.76-2.03,1.5c-0.1,0.24-0.16,0.63-0.16,1v7.41
			h-4V20.86z"/>
		<path class="st2" d="M108.71,13.18c0,1.1-0.84,2-2.16,2c-1.26,0-2.1-0.89-2.08-2c-0.03-1.16,0.81-2.02,2.1-2.02
			C107.87,11.16,108.68,12.03,108.71,13.18z M104.58,29.62V16.76h4v12.86H104.58z"/>
		<path class="st2" d="M124.8,29.12c-0.74,0.37-2.39,0.76-4.55,0.76c-6.13,0-9.28-3.81-9.28-8.86c0-6.05,4.31-9.41,9.68-9.41
			c2.08,0,3.65,0.42,4.37,0.79l-0.82,3.18c-0.82-0.34-1.95-0.66-3.37-0.66c-3.18,0-5.65,1.92-5.65,5.86c0,3.55,2.1,5.78,5.68,5.78
			c1.21,0,2.55-0.26,3.34-0.58L124.8,29.12z"/>
		<path class="st2" d="M134.21,29.62l-0.24-1.29h-0.08c-0.84,1.03-2.16,1.58-3.68,1.58c-2.6,0-4.15-1.89-4.15-3.94
			c0-3.34,3-4.94,7.55-4.92v-0.18c0-0.68-0.37-1.66-2.34-1.66c-1.31,0-2.71,0.45-3.55,0.97l-0.74-2.58c0.89-0.5,2.66-1.13,5-1.13
			c4.29,0,5.65,2.52,5.65,5.55v4.47c0,1.24,0.05,2.42,0.18,3.13H134.21z M133.74,23.54c-2.1-0.03-3.73,0.47-3.73,2.02
			c0,1.03,0.68,1.52,1.58,1.52c1,0,1.81-0.66,2.08-1.47c0.05-0.21,0.08-0.45,0.08-0.68V23.54z"/>
		<path class="st2" d="M144.92,13.08v3.68h2.87v2.95h-2.87v4.65c0,1.55,0.37,2.26,1.58,2.26c0.5,0,0.89-0.05,1.18-0.11l0.03,3.02
			c-0.53,0.21-1.47,0.34-2.6,0.34c-1.29,0-2.37-0.45-3-1.1c-0.74-0.76-1.1-2-1.1-3.81V19.7h-1.71v-2.95H141v-2.79L144.92,13.08z"/>
		<path class="st2" d="M162.53,23.04c0,4.71-3.34,6.86-6.78,6.86c-3.76,0-6.65-2.47-6.65-6.63c0-4.15,2.73-6.81,6.86-6.81
			C159.9,16.47,162.53,19.18,162.53,23.04z M153.23,23.18c0,2.21,0.92,3.86,2.63,3.86c1.55,0,2.55-1.55,2.55-3.86
			c0-1.92-0.74-3.86-2.55-3.86C153.94,19.31,153.23,21.28,153.23,23.18z M160.01,11.16l-3.21,4h-2.76l2.26-4H160.01z"/>
		<path class="st2" d="M164.88,10.95h4v18.67h-4V10.95z"/>
		<path class="st2" d="M176.1,13.18c0,1.1-0.84,2-2.16,2c-1.26,0-2.1-0.89-2.08-2c-0.03-1.16,0.81-2.02,2.1-2.02
			C175.26,11.16,176.08,12.03,176.1,13.18z M171.98,29.62V16.76h4v12.86H171.98z"/>
		<path class="st2" d="M188.7,29.3c-0.71,0.32-2.05,0.58-3.58,0.58c-4.15,0-6.81-2.52-6.81-6.57c0-3.76,2.58-6.84,7.36-6.84
			c1.05,0,2.21,0.18,3.05,0.5l-0.63,2.97c-0.47-0.21-1.18-0.39-2.23-0.39c-2.1,0-3.47,1.5-3.44,3.6c0,2.37,1.58,3.6,3.52,3.6
			c0.95,0,1.68-0.16,2.29-0.39L188.7,29.3z"/>
		<path class="st2" d="M198.19,29.62l-0.24-1.29h-0.08c-0.84,1.03-2.16,1.58-3.68,1.58c-2.6,0-4.15-1.89-4.15-3.94
			c0-3.34,3-4.94,7.55-4.92v-0.18c0-0.68-0.37-1.66-2.34-1.66c-1.31,0-2.71,0.45-3.55,0.97l-0.74-2.58c0.89-0.5,2.66-1.13,5-1.13
			c4.29,0,5.65,2.52,5.65,5.55v4.47c0,1.24,0.05,2.42,0.18,3.13H198.19z M197.72,23.54c-2.1-0.03-3.73,0.47-3.73,2.02
			c0,1.03,0.68,1.52,1.58,1.52c1,0,1.81-0.66,2.08-1.47c0.05-0.21,0.08-0.45,0.08-0.68V23.54z"/>
	</g>
</g>
<g>
</g>
<g>
</g>
<g>
</g>
<g>
</g>
<g>
</g>
<g>
</g>
</svg>
